<svg width="1200" height="720" viewBox="0 0 1200 720" fill="none" xmlns="http://www.w3.org/2000/svg">
  <defs>
    <linearGradient id="bg" x1="80" y1="56" x2="1120" y2="664" gradientUnits="userSpaceOnUse">
      <stop stop-color="#0A1622"/>
      <stop offset="1" stop-color="#10283D"/>
    </linearGradient>
    <linearGradient id="glow" x1="140" y1="110" x2="1080" y2="610" gradientUnits="userSpaceOnUse">
      <stop stop-color="#FFB454" stop-opacity="0.22"/>
      <stop offset="1" stop-color="#69D2FF" stop-opacity="0.1"/>
    </linearGradient>
    <linearGradient id="shell" x1="80" y1="72" x2="1120" y2="648" gradientUnits="userSpaceOnUse">
      <stop stop-color="#0C1824"/>
      <stop offset="1" stop-color="#0E1D2C"/>
    </linearGradient>
    <filter id="shadow" x="44" y="36" width="1112" height="648" filterUnits="userSpaceOnUse">
      <feOffset dy="20"/>
      <feGaussianBlur stdDeviation="18"/>
      <feColorMatrix type="matrix" values="0 0 0 0 0.0117647 0 0 0 0 0.0705882 0 0 0 0 0.12549 0 0 0 0.42 0"/>
      <feBlend in2="SourceGraphic" result="shape"/>
    </filter>
  </defs>

  <rect width="1200" height="720" rx="32" fill="#07111B"/>
  <circle cx="210" cy="118" r="190" fill="#15324A" fill-opacity="0.28"/>
  <circle cx="1044" cy="628" r="240" fill="#0C2235" fill-opacity="0.45"/>
  <rect x="88" y="80" width="1024" height="560" rx="30" fill="url(#glow)"/>

  <g filter="url(#shadow)">
    <rect x="80" y="72" width="1040" height="576" rx="28" fill="url(#shell)" stroke="#2A4359" stroke-width="2"/>
    <rect x="80" y="72" width="1040" height="56" rx="28" fill="#0F1C29"/>
    <path d="M80 100C80 84.536 92.536 72 108 72H1092C1107.46 72 1120 84.536 1120 100V128H80V100Z" fill="#0F1C29"/>

    <circle cx="114" cy="100" r="6.5" fill="#FF6B6B"/>
    <circle cx="136" cy="100" r="6.5" fill="#FFB454"/>
    <circle cx="158" cy="100" r="6.5" fill="#50D890"/>

    <rect x="196" y="84" width="206" height="32" rx="16" fill="#152434" stroke="#284156"/>
    <text x="222" y="105" fill="#A8BED0" font-family="Inter, ui-sans-serif, system-ui, sans-serif" font-size="14" font-weight="600">localhost:8000</text>

    <rect x="424" y="84" width="92" height="32" rx="16" fill="#132536"/>
    <text x="446" y="105" fill="#D9E8F3" font-family="Inter, ui-sans-serif, system-ui, sans-serif" font-size="14" font-weight="700">CLI stream</text>

    <rect x="528" y="84" width="104" height="32" rx="16" fill="#1A3345" stroke="#3B5D73"/>
    <text x="549" y="105" fill="#7DD8FF" font-family="Inter, ui-sans-serif, system-ui, sans-serif" font-size="14" font-weight="700">Recent runs</text>

    <rect x="104" y="152" width="560" height="472" rx="22" fill="#09121C" stroke="#243C50" stroke-width="2"/>
    <rect x="688" y="152" width="408" height="472" rx="22" fill="#0C1621" stroke="#243C50" stroke-width="2"/>

    <text x="132" y="190" fill="#D8E5EF" font-family="Inter, ui-sans-serif, system-ui, sans-serif" font-size="15" font-weight="700">Terminal stream</text>
    <text x="928" y="190" fill="#D8E5EF" font-family="Inter, ui-sans-serif, system-ui, sans-serif" font-size="15" font-weight="700" text-anchor="end">Dashboard</text>

    <rect x="128" y="212" width="512" height="78" rx="16" fill="#101C29" stroke="#263D50"/>
    <text x="152" y="242" fill="#6FD5FF" font-family="Menlo, Monaco, Consolas, monospace" font-size="18" font-weight="700">$ ds &quot;Research competitors and write briefing.pdf&quot;</text>
    <text x="152" y="268" fill="#9AB0C1" font-family="Menlo, Monaco, Consolas, monospace" font-size="16">sites, recent news, branded PDF, and source log</text>

    <rect x="128" y="312" width="512" height="62" rx="16" fill="#0F1925"/>
    <rect x="146" y="328" width="112" height="28" rx="14" fill="#2E2413"/>
    <text x="164" y="347" fill="#FFB454" font-family="Inter, ui-sans-serif, system-ui, sans-serif" font-size="13" font-weight="700">WEBFETCH</text>
    <text x="276" y="347" fill="#D6E5F0" font-family="Inter, ui-sans-serif, system-ui, sans-serif" font-size="16">competitor sites, launch pages, and recent coverage</text>

    <rect x="128" y="388" width="512" height="62" rx="16" fill="#0F1925"/>
    <rect x="146" y="404" width="92" height="28" rx="14" fill="#133243"/>
    <text x="165" y="423" fill="#7DD8FF" font-family="Inter, ui-sans-serif, system-ui, sans-serif" font-size="13" font-weight="700">STREAM</text>
    <text x="258" y="423" fill="#D6E5F0" font-family="Inter, ui-sans-serif, system-ui, sans-serif" font-size="16">Compared launches, pricing, positioning, and buyer cues.</text>

    <rect x="128" y="464" width="512" height="62" rx="16" fill="#0F1925"/>
    <rect x="146" y="480" width="88" height="28" rx="14" fill="#1C2C1B"/>
    <text x="166" y="499" fill="#7EE2A8" font-family="Inter, ui-sans-serif, system-ui, sans-serif" font-size="13" font-weight="700">WRITE</text>
    <text x="252" y="499" fill="#D6E5F0" font-family="Inter, ui-sans-serif, system-ui, sans-serif" font-size="16">briefing.pdf + reports/sources.md</text>

    <rect x="128" y="546" width="512" height="56" rx="16" fill="#111E2B" stroke="#294154"/>
    <text x="152" y="580" fill="#EDF4F9" font-family="Inter, ui-sans-serif, system-ui, sans-serif" font-size="17" font-weight="700">Completed in 11 turns</text>
    <text x="330" y="580" fill="#95AABD" font-family="Inter, ui-sans-serif, system-ui, sans-serif" font-size="16">Cost $0.0748</text>
    <text x="446" y="580" fill="#95AABD" font-family="Inter, ui-sans-serif, system-ui, sans-serif" font-size="16">2 files</text>

    <rect x="712" y="212" width="360" height="46" rx="14" fill="#111D29"/>
    <text x="734" y="241" fill="#91A6B8" font-family="Inter, ui-sans-serif, system-ui, sans-serif" font-size="14" font-weight="700">RUN</text>
    <text x="818" y="241" fill="#91A6B8" font-family="Inter, ui-sans-serif, system-ui, sans-serif" font-size="14" font-weight="700">STATUS</text>
    <text x="922" y="241" fill="#91A6B8" font-family="Inter, ui-sans-serif, system-ui, sans-serif" font-size="14" font-weight="700">MODEL</text>
    <text x="1010" y="241" fill="#91A6B8" font-family="Inter, ui-sans-serif, system-ui, sans-serif" font-size="14" font-weight="700">COST</text>

    <rect x="712" y="276" width="360" height="78" rx="18" fill="#101A26"/>
    <text x="734" y="309" fill="#EAF2F8" font-family="Menlo, Monaco, Consolas, monospace" font-size="16">a18c32</text>
    <rect x="814" y="292" width="92" height="28" rx="14" fill="#143423"/>
    <text x="833" y="311" fill="#7EE2A8" font-family="Inter, ui-sans-serif, system-ui, sans-serif" font-size="13" font-weight="700">completed</text>
    <text x="932" y="309" fill="#EAF2F8" font-family="Inter, ui-sans-serif, system-ui, sans-serif" font-size="16">sonnet</text>
    <text x="1010" y="309" fill="#EAF2F8" font-family="Inter, ui-sans-serif, system-ui, sans-serif" font-size="16">$0.04</text>
    <text x="734" y="334" fill="#8FA6B9" font-family="Inter, ui-sans-serif, system-ui, sans-serif" font-size="14">Research competitors and write briefing.pdf.</text>

    <rect x="712" y="372" width="360" height="78" rx="18" fill="#101A26"/>
    <text x="734" y="405" fill="#EAF2F8" font-family="Menlo, Monaco, Consolas, monospace" font-size="16">f39d14</text>
    <rect x="814" y="388" width="78" height="28" rx="14" fill="#2E2413"/>
    <text x="835" y="407" fill="#FFB454" font-family="Inter, ui-sans-serif, system-ui, sans-serif" font-size="13" font-weight="700">running</text>
    <text x="932" y="405" fill="#EAF2F8" font-family="Inter, ui-sans-serif, system-ui, sans-serif" font-size="16">opus</text>
    <text x="1010" y="405" fill="#EAF2F8" font-family="Inter, ui-sans-serif, system-ui, sans-serif" font-size="16">--</text>
    <text x="734" y="430" fill="#8FA6B9" font-family="Inter, ui-sans-serif, system-ui, sans-serif" font-size="14">Triaging a Zendesk export into actions and owners.</text>

    <rect x="712" y="468" width="360" height="78" rx="18" fill="#101A26"/>
    <text x="734" y="501" fill="#EAF2F8" font-family="Menlo, Monaco, Consolas, monospace" font-size="16">b09ef1</text>
    <rect x="814" y="484" width="62" height="28" rx="14" fill="#3A1E24"/>
    <text x="834" y="503" fill="#FF8B9A" font-family="Inter, ui-sans-serif, system-ui, sans-serif" font-size="13" font-weight="700">error</text>
    <text x="932" y="501" fill="#EAF2F8" font-family="Inter, ui-sans-serif, system-ui, sans-serif" font-size="16">sonnet</text>
    <text x="1010" y="501" fill="#EAF2F8" font-family="Inter, ui-sans-serif, system-ui, sans-serif" font-size="16">--</text>
    <text x="734" y="526" fill="#8FA6B9" font-family="Inter, ui-sans-serif, system-ui, sans-serif" font-size="14">Audit paused while cloning the target repository.</text>

    <rect x="712" y="566" width="360" height="34" rx="12" fill="#142332"/>
    <text x="734" y="588" fill="#95ABBD" font-family="Inter, ui-sans-serif, system-ui, sans-serif" font-size="14">Run history shown for the current server process.</text>
  </g>
</svg>
